<?xml version="1.0" encoding="UTF-8"?>
<svg id="Layer_2" xmlns="http://www.w3.org/2000/svg" viewBox="0 0 35.38 35.38">
  <defs>
    <style>
      .cls-1 {
        fill: #fff;
      }

      .cls-2 {
        fill: #006ef5;
      }
    </style>
  </defs>
  <g id="ELEMENTS">
    <g>
      <circle class="cls-2" cx="17.69" cy="17.69" r="17.69"/>
      <g>
        <path class="cls-1" d="M25.69,23.06v-14.29c0-1.59-1.29-2.88-2.89-2.88h-10.23c-1.59,0-2.88,1.29-2.88,2.88v14.29h16ZM17.69,7.69c.48,0,.87.39.87.87s-.39.87-.87.87-.87-.39-.87-.87.39-.87.87-.87Z"/>
        <path class="cls-1" d="M9.69,24.79v1.82c0,1.59,1.29,2.89,2.88,2.89h10.23c1.59,0,2.89-1.29,2.89-2.89v-1.82h-16ZM17.69,27.89c-.48,0-.87-.39-.87-.87s.39-.87.87-.87.87.39.87.87-.39.87-.87.87Z"/>
      </g>
    </g>
  </g>
</svg>