<?xml version="1.0" encoding="UTF-8"?>
<svg id="Layer_2" xmlns="http://www.w3.org/2000/svg" viewBox="0 0 35.38 35.38">
  <defs>
    <style>
      .cls-1 {
        fill: #3cf;
      }

      .cls-2 {
        fill: #fff;
      }
    </style>
  </defs>
  <g id="ELEMENTS">
    <g>
      <circle class="cls-1" cx="17.69" cy="17.69" r="17.69"/>
      <g>
        <path class="cls-2" d="M13.31,18.57c.2,5.98,2.4,10.08,4.38,10.08s4.18-4.1,4.38-10.08h-8.77Z"/>
        <path class="cls-2" d="M17.69,6.73c-1.98,0-4.18,4.1-4.38,10.08h8.77c-.2-5.98-2.4-10.08-4.38-10.08Z"/>
        <path class="cls-2" d="M23.83,16.81h5.66c-.38-5.22-4.15-9.5-9.12-10.65,1.97,1.88,3.31,5.81,3.45,10.65Z"/>
        <path class="cls-2" d="M23.83,18.57c-.15,4.84-1.48,8.78-3.45,10.65,4.97-1.15,8.73-5.43,9.12-10.65h-5.66Z"/>
        <path class="cls-2" d="M11.55,18.57h-5.66c.38,5.22,4.15,9.5,9.12,10.65-1.97-1.88-3.31-5.81-3.45-10.65Z"/>
        <path class="cls-2" d="M11.55,16.81c.15-4.84,1.48-8.78,3.45-10.65-4.97,1.15-8.73,5.43-9.12,10.65h5.66Z"/>
      </g>
    </g>
  </g>
</svg>