<?xml version="1.0" encoding="UTF-8"?>
<svg id="Layer_2" xmlns="http://www.w3.org/2000/svg" viewBox="0 0 35.38 35.38">
  <defs>
    <style>
      .cls-1, .cls-2 {
        fill: #fff;
      }

      .cls-2 {
        fill-rule: evenodd;
      }

      .cls-3 {
        fill: #00d95f;
      }
    </style>
  </defs>
  <g id="ELEMENTS">
    <g>
      <circle class="cls-3" cx="17.69" cy="17.69" r="17.69" transform="translate(-2.58 32.35) rotate(-80.87)"/>
      <path class="cls-1" d="M8.13,27.7l1.48-5.5c-.84-1.51-1.27-3.2-1.27-4.91,0-5.6,4.56-10.16,10.16-10.16s10.16,4.56,10.16,10.16-4.56,10.16-10.16,10.16c-1.68,0-3.34-.42-4.83-1.23l-5.53,1.48ZM13.94,24.16l.35.21c1.28.76,2.73,1.16,4.21,1.16,4.54,0,8.24-3.7,8.24-8.24s-3.7-8.24-8.24-8.24-8.24,3.7-8.24,8.24c0,1.5.42,2.98,1.21,4.27l.21.35-.82,3.07,3.09-.83Z"/>
      <path class="cls-2" d="M22.27,18.7c-.42-.25-.96-.53-1.46-.33-.38.15-.62.75-.86,1.05-.13.16-.28.18-.47.1-1.42-.57-2.51-1.51-3.29-2.82-.13-.2-.11-.36.05-.55.24-.28.53-.59.6-.97.06-.38-.11-.81-.27-1.15-.2-.43-.42-1.04-.85-1.28-.39-.22-.91-.1-1.26.19-.6.49-.9,1.26-.89,2.03,0,.22.03.43.08.64.12.5.36.98.62,1.42.2.34.41.67.64.98.76,1.03,1.7,1.93,2.8,2.6.55.33,1.13.63,1.74.83.68.23,1.29.46,2.03.32.77-.15,1.53-.62,1.84-1.37.09-.22.14-.47.09-.7-.1-.48-.76-.77-1.15-1Z"/>
    </g>
  </g>
</svg>